# xmcd
#
# Track frame offsets:
#	150
#	11706
#	24881
#	36943
#	45906
#	55495
#	69153
#	78191
#	86550
#	97296
#
# Disc length: 1471 seconds
#
# Revision: 0
# Processed by: cddbd v1.5.2PL0 Copyright (c) Steve Scherf et al.
# Submitted via: EZCDAudioConverter 4.0.4.2
#
DISCID=7205bd0a
DTITLE=Pete Drake - Pete Drake and His Talking Guitar
DYEAR=1900
DGENRE=SteelGuitar
TTITLE0=There Goes My Everything
TTITLE1=Green  Green Grass Of Home
TTITLE2=Almost Persuaded
TTITLE3=Still
TTITLE4=Anymore
TTITLE5=Don't Let Me Cross Over
TTITLE6=Bird Of Paradise
TTITLE7=Tippy Toeing
TTITLE8=The End Of The World
TTITLE9=Bear With Me A Little Longer
EXTD=
EXTT0=
EXTT1=
EXTT2=
EXTT3=
EXTT4=
EXTT5=
EXTT6=
EXTT7=
EXTT8=
EXTT9=
PLAYORDER=
